<?xml version="1.0" encoding="UTF-8" standalone="no"?>
<svg
   width="512"
   height="512"
   viewBox="0 0 24 24"
   version="1.1"
   id="svg1"
   sodipodi:docname="bluesky.svg"
   inkscape:version="1.4.2 (ebf0e940d0, 2025-05-08)"
   xmlns:inkscape="http://www.inkscape.org/namespaces/inkscape"
   xmlns:sodipodi="http://sodipodi.sourceforge.net/DTD/sodipodi-0.dtd"
   xmlns="http://www.w3.org/2000/svg"
   xmlns:svg="http://www.w3.org/2000/svg">
  <defs
     id="defs1" />
  <sodipodi:namedview
     id="namedview1"
     pagecolor="#505050"
     bordercolor="#000000"
     borderopacity="0"
     inkscape:showpageshadow="0"
     inkscape:pageopacity="0"
     inkscape:pagecheckerboard="1"
     inkscape:deskcolor="#505050"
     inkscape:zoom="1.5136719"
     inkscape:cx="256.33032"
     inkscape:cy="256.66064"
     inkscape:window-width="1864"
     inkscape:window-height="1000"
     inkscape:window-x="0"
     inkscape:window-y="0"
     inkscape:window-maximized="1"
     inkscape:current-layer="svg1" />
  <path
     fill="none"
     stroke="currentColor"
     stroke-linecap="round"
     stroke-linejoin="round"
     stroke-width="1.5"
     d="m2.753 4.514l.434 5.853a3.354 3.354 0 0 0 3.345 3.106h.702l-.51.291a5.94 5.94 0 0 0-2.447 2.677a2.655 2.655 0 0 0 .74 3.17l.972.787c1.226.994 3 1.236 4.085.089c.92-.974 1.32-1.914 1.405-2.128q.018-.046.032-.093l.295-.924c.111-.347.176-.707.194-1.07c.018.363.083.723.194 1.07l.295.924q.014.047.032.093c.084.214.486 1.154 1.405 2.128c1.084 1.147 2.859.906 4.085-.088l.971-.788a2.655 2.655 0 0 0 .741-3.17a5.94 5.94 0 0 0-2.447-2.676l-.51-.292h.702a3.354 3.354 0 0 0 3.345-3.106l.434-5.853c.101-1.363-1.373-2.25-2.5-1.477c-1.726 1.18-3.77 2.698-4.565 3.754c-1.41 1.872-2.117 3.559-2.182 3.719c-.065-.16-.772-1.847-2.182-3.72c-.795-1.055-2.84-2.573-4.564-3.754c-1.128-.772-2.602.115-2.5 1.478"
     id="path1"
     style="fill:#0e0000;fill-opacity:1;stroke:none" />
</svg>
