<?xml version="1.0" encoding="UTF-8" standalone="no"?>
<svg
   width="512"
   height="512"
   viewBox="0 0 24 24"
   version="1.1"
   id="svg2"
   sodipodi:docname="github.svg"
   inkscape:version="1.4.2 (ebf0e940d0, 2025-05-08)"
   xmlns:inkscape="http://www.inkscape.org/namespaces/inkscape"
   xmlns:sodipodi="http://sodipodi.sourceforge.net/DTD/sodipodi-0.dtd"
   xmlns="http://www.w3.org/2000/svg"
   xmlns:svg="http://www.w3.org/2000/svg">
  <defs
     id="defs2" />
  <sodipodi:namedview
     id="namedview2"
     pagecolor="#505050"
     bordercolor="#000000"
     borderopacity="0"
     inkscape:showpageshadow="0"
     inkscape:pageopacity="0"
     inkscape:pagecheckerboard="1"
     inkscape:deskcolor="#505050"
     inkscape:zoom="1.5136719"
     inkscape:cx="352.12387"
     inkscape:cy="252.69677"
     inkscape:window-width="1864"
     inkscape:window-height="1000"
     inkscape:window-x="0"
     inkscape:window-y="0"
     inkscape:window-maximized="1"
     inkscape:current-layer="svg2" />
  <g
     fill="none"
     stroke="currentColor"
     stroke-linecap="round"
     stroke-linejoin="round"
     stroke-width="1.5"
     color="currentColor"
     id="g2">
    <path
       d="M10 20.568c-3.429 1.157-6.286 0-8-3.568"
       id="path1"
       style="stroke:#0e0000;stroke-opacity:1" />
    <path
       d="M10 22v-3.242c0-.598.184-1.118.48-1.588c.204-.322.064-.78-.303-.88C7.134 15.452 5 14.107 5 9.645c0-1.16.38-2.25 1.048-3.2c.166-.236.25-.354.27-.46c.02-.108-.015-.247-.085-.527c-.283-1.136-.264-2.343.16-3.43c0 0 .877-.287 2.874.96c.456.285.684.428.885.46s.469-.035 1.005-.169A9.5 9.5 0 0 1 13.5 3a9.6 9.6 0 0 1 2.343.28c.536.134.805.2 1.006.169c.2-.032.428-.175.884-.46c1.997-1.247 2.874-.96 2.874-.96c.424 1.087.443 2.294.16 3.43c-.07.28-.104.42-.084.526s.103.225.269.461c.668.95 1.048 2.04 1.048 3.2c0 4.462-2.134 5.807-5.177 6.643c-.367.101-.507.559-.303.88c.296.47.48.99.48 1.589V22"
       id="path2"
       style="fill:#0e0000;fill-opacity:1;stroke:none;stroke-opacity:1" />
  </g>
</svg>
