<?xml version="1.0" encoding="UTF-8" standalone="no"?>
<svg
   width="512"
   height="512"
   viewBox="0 0 24 24"
   version="1.1"
   id="svg2"
   sodipodi:docname="youtube.svg"
   inkscape:version="1.4.2 (ebf0e940d0, 2025-05-08)"
   xmlns:inkscape="http://www.inkscape.org/namespaces/inkscape"
   xmlns:sodipodi="http://sodipodi.sourceforge.net/DTD/sodipodi-0.dtd"
   xmlns="http://www.w3.org/2000/svg"
   xmlns:svg="http://www.w3.org/2000/svg">
  <defs
     id="defs2" />
  <sodipodi:namedview
     id="namedview2"
     pagecolor="#505050"
     bordercolor="#000000"
     borderopacity="0"
     inkscape:showpageshadow="0"
     inkscape:pageopacity="0"
     inkscape:pagecheckerboard="1"
     inkscape:deskcolor="#505050"
     inkscape:zoom="1.5136719"
     inkscape:cx="313.1458"
     inkscape:cy="257.98193"
     inkscape:window-width="1864"
     inkscape:window-height="1000"
     inkscape:window-x="0"
     inkscape:window-y="0"
     inkscape:window-maximized="1"
     inkscape:current-layer="svg2" />
  <g
     fill="none"
     stroke="currentColor"
     stroke-linejoin="round"
     stroke-width="1.5"
     id="g2">
    <path
       id="path1"
       style="fill:#0e0000;fill-opacity:1;stroke:none"
       d="M 9.1499634 5.0190125 C 6.1329634 5.0190125 4.6240117 5.0189631 3.6870117 5.9559631 C 2.7500117 6.8929631 2.4500427 8.4020063 2.4500427 11.419006 L 2.4500427 12.580994 C 2.4500427 15.597994 2.7500117 17.107037 3.6870117 18.044037 C 4.6240117 18.981037 6.1329634 18.980988 9.1499634 18.980988 L 14.850037 18.980988 C 17.867037 18.980988 19.375988 18.981037 20.312988 18.044037 C 21.249988 17.107037 21.549957 15.597994 21.549957 12.580994 L 21.549957 11.419006 C 21.549957 8.4020063 21.250988 6.8929631 20.312988 5.9559631 C 19.374988 5.0189631 17.867037 5.0190125 14.850037 5.0190125 L 9.1499634 5.0190125 z M 10.115662 8.7330322 A 0.6 0.6 0 0 1 10.417969 8.8240356 L 14.685974 11.490967 A 0.6 0.6 0 0 1 14.685974 12.509033 L 10.417969 15.175964 A 0.6 0.6 0 0 1 9.4999695 14.66803 L 9.4999695 9.3329773 A 0.6 0.6 0 0 1 10.115662 8.7330322 z " />
  </g>
</svg>
